<?xml version="1.0" encoding="utf-8"?>
<!-- Generator: Adobe Illustrator 27.5.0, SVG Export Plug-In . SVG Version: 6.00 Build 0)  -->
<svg version="1.1" id="Layer_1" xmlns="http://www.w3.org/2000/svg" xmlns:xlink="http://www.w3.org/1999/xlink" x="0px" y="0px"
	 viewBox="0 0 500 500" style="enable-background:new 0 0 500 500;" xml:space="preserve">
<style type="text/css">
	.st0{fill:#355EA5;}
</style>
<g>
	<g>
		<path class="st0" d="M240,70.08c-0.67,14.67-1.12,28.84-1.38,42.5c-0.25,13.67-0.38,24.17-0.38,31.5c0,6.67,0.08,13,0.25,19
			c0.16,6,0.33,11,0.5,15h-5.75c-1.67-24.33-4.25-43.58-7.75-57.75c-3.5-14.16-8.04-24.16-13.62-30
			c-5.59-5.83-12.12-8.75-19.62-8.75H182c-4.84,0-8.5,0.84-11,2.5c-2.5,1.67-4.17,5-5,10c-0.84,5-1.25,12.67-1.25,23v260
			c0,10,0.41,17.59,1.25,22.75c0.83,5.17,2.5,8.59,5,10.25c2.5,1.67,6.16,2.5,11,2.5h12.25c7.5,0,14.12-3.25,19.88-9.75
			s10.66-17.58,14.75-33.25c4.08-15.66,7.21-36.83,9.38-63.5H244c-0.5,10.67-0.75,24.67-0.75,42c0,7.67,0.08,18.5,0.25,32.5
			c0.16,14,0.66,28.5,1.5,43.5c-8.5-0.66-18.09-1.08-28.75-1.25c-10.67-0.16-20.17-0.25-28.5-0.25c-4.17,0-9.5,0-16,0
			s-13.5,0.09-21,0.25c-7.5,0.17-15.09,0.34-22.75,0.5c-7.67,0.17-14.92,0.42-21.75,0.75v-10c5.33-0.66,9.33-2,12-4
			c2.66-2,4.46-6,5.38-12c0.91-6,1.38-15,1.38-27v-248c0-12.33-0.46-21.41-1.38-27.25c-0.92-5.83-2.75-9.83-5.5-12
			c-2.75-2.16-6.71-3.41-11.88-3.75v-10c6.83,0.34,14.08,0.59,21.75,0.75c7.66,0.17,15.25,0.34,22.75,0.5
			c7.5,0.17,14.5,0.25,21,0.25s11.83,0,16,0c7.66,0,16.38-0.08,26.12-0.25C223.63,71.17,232.33,70.75,240,70.08z M201,241.08v10
			h-43.75v-10H201z M208.25,175.08c-0.67,19-0.96,33.5-0.88,43.5c0.08,10,0.12,19.17,0.12,27.5c0,8.34,0.08,17.5,0.25,27.5
			c0.16,10,0.58,24.5,1.25,43.5h-5.75c-0.84-11.66-2.38-22.5-4.62-32.5s-5.46-18.08-9.62-24.25c-4.17-6.16-9.59-9.25-16.25-9.25v-10
			c5,0,9.25-2.08,12.75-6.25c3.5-4.16,6.38-9.66,8.62-16.5c2.25-6.83,4.04-14.08,5.38-21.75c1.33-7.66,2.33-14.83,3-21.5H208.25z"/>
		<path class="st0" d="M327.25,63.58c9.83,0,17.41,2.09,22.75,6.25c5.33,4.17,9.91,8.59,13.75,13.25c2,2.34,3.62,4.09,4.88,5.25
			c1.25,1.17,2.46,1.75,3.62,1.75c1.66,0,2.88-1.83,3.62-5.5c0.75-3.66,1.38-9.16,1.88-16.5h5.75c-0.17,6.34-0.38,13.92-0.62,22.75
			c-0.25,8.84-0.42,20.42-0.5,34.75c-0.09,14.34-0.12,33.17-0.12,56.5h-5.75c-0.67-17.33-2.67-34.16-6-50.5
			c-3.34-16.33-8.04-29.75-14.12-40.25c-6.09-10.5-13.54-15.75-22.38-15.75c-8,0-14.59,4.5-19.75,13.5c-5.17,9-7.75,21.5-7.75,37.5
			c0,13.34,1.66,24.75,5,34.25c3.33,9.5,8.21,18.75,14.62,27.75c6.41,9,14.21,19.84,23.38,32.5c8,10.34,15.16,20.67,21.5,31
			c6.33,10.34,11.41,22,15.25,35c3.83,13,5.75,28.5,5.75,46.5c0,22-2.88,40.17-8.62,54.5c-5.75,14.34-13.29,25.09-22.62,32.25
			c-9.34,7.16-19.59,10.75-30.75,10.75c-10.34,0-18.59-2-24.75-6c-6.17-4-11.34-8.16-15.5-12.5c-3.67-4.66-6.5-7-8.5-7
			c-1.67,0-2.88,1.84-3.62,5.5c-0.75,3.67-1.38,9.17-1.88,16.5H270c0.33-8,0.54-17.33,0.62-28c0.08-10.66,0.16-24.58,0.25-41.75
			c0.08-17.16,0.12-38.91,0.12-65.25h5.75c0.66,22,2.54,42.59,5.62,61.75c3.08,19.17,7.83,34.59,14.25,46.25
			c6.41,11.67,14.96,17.5,25.62,17.5c5.83,0,11.04-2.08,15.62-6.25c4.58-4.16,8.29-10.41,11.12-18.75c2.83-8.33,4.25-18.66,4.25-31
			c0-14-1.62-26.16-4.88-36.5c-3.25-10.33-7.67-20-13.25-29c-5.59-9-12.04-18.16-19.38-27.5c-7.84-10.33-15.17-20.66-22-31
			c-6.84-10.33-12.29-22.16-16.38-35.5c-4.09-13.33-6.12-29.16-6.12-47.5c0-21,2.62-38.25,7.88-51.75s12.16-23.5,20.75-30
			C308.46,66.83,317.58,63.58,327.25,63.58z"/>
	</g>
</g>
</svg>
